<?xml version="1.0" encoding="UTF-8"?>
<svg xmlns="http://www.w3.org/2000/svg" xmlns:xlink="http://www.w3.org/1999/xlink" width="100pt" height="100pt" viewBox="0 0 100 100" version="1.1">
<g id="surface1">
<path style=" stroke:none;fill-rule:evenodd;fill:rgb(0%,0%,0%);fill-opacity:1;" d="M 5.125 69.175781 L 4.679688 83.675781 C 4.679688 86.113281 7.003906 85.632812 7.003906 86.113281 C 7.003906 86.445312 6.671875 86.515625 6.046875 86.515625 L 2.246094 86.515625 C 1.730469 86.515625 1.46875 86.371094 1.46875 86.148438 C 1.46875 85.445312 3.730469 86.167969 3.804688 83.84375 L 4.285156 67.792969 C 4.285156 66.242188 1.839844 66.890625 1.839844 66.152344 C 1.839844 65.929688 2.0625 65.820312 2.539062 65.820312 L 6.488281 65.820312 L 11.15625 81.722656 L 15.660156 65.742188 L 18.886719 65.820312 C 19.402344 65.820312 19.660156 65.929688 19.660156 66.222656 C 19.660156 66.886719 17.816406 66.222656 17.777344 67.921875 L 18.441406 83.898438 C 18.480469 84.746094 18.625 85.335938 18.886719 85.519531 C 19.476562 85.964844 20.398438 85.742188 20.398438 86.183594 C 20.398438 86.441406 20.175781 86.515625 19.699219 86.515625 L 14.828125 86.515625 C 14.347656 86.515625 14.125 86.441406 14.125 86.183594 C 14.125 85.519531 16.191406 86.183594 16.191406 84.414062 L 16.191406 83.96875 L 15.601562 69.175781 L 11.027344 85.335938 C 10.769531 86.292969 10.730469 86.40625 10.4375 86.40625 C 10.066406 86.40625 9.992188 86.035156 9.808594 85.261719 Z M 40.617188 72.460938 L 40.617188 74.820312 C 40.617188 75.449219 40.46875 75.890625 39.953125 75.890625 C 38.660156 75.890625 38.847656 72.128906 36.632812 72.128906 C 34.824219 72.128906 33.054688 74.859375 33.054688 78.917969 C 33.054688 83.160156 34.714844 85.59375 37.074219 85.59375 C 39.878906 85.59375 39.84375 82.421875 40.46875 82.421875 C 40.726562 82.421875 40.839844 82.644531 40.839844 82.9375 C 40.839844 85.226562 38.367188 87.183594 36.335938 87.183594 C 33.3125 87.183594 30.765625 83.898438 30.765625 79.175781 C 30.765625 74.230469 33.679688 71.207031 37.148438 71.207031 C 38.734375 71.207031 39.804688 71.648438 40.617188 72.460938 Z M 44.367188 65.636719 C 45.105469 65.636719 45.621094 66.410156 45.621094 67.480469 C 45.621094 68.550781 45.179688 69.214844 44.402344 69.214844 C 43.738281 69.214844 43.113281 68.550781 43.113281 67.515625 C 43.113281 66.410156 43.703125 65.636719 44.367188 65.636719 Z M 50.417969 71.796875 L 50.492188 73.273438 C 52.226562 71.757812 53.332031 71.097656 54.957031 71.097656 C 57.355469 71.097656 58.757812 72.71875 58.757812 75.449219 L 58.757812 83.75 C 58.757812 84.601562 58.792969 85.078125 59.164062 85.449219 C 59.640625 85.929688 60.675781 85.597656 60.675781 86.148438 C 60.675781 86.40625 60.453125 86.519531 60.011719 86.519531 L 55.804688 86.519531 C 55.253906 86.519531 54.917969 86.445312 54.917969 86.113281 C 54.917969 85.742188 56.617188 86.113281 56.617188 84.414062 L 56.617188 75.414062 C 56.617188 73.496094 55.511719 72.351562 53.996094 72.351562 C 52.042969 72.351562 50.605469 73.789062 50.605469 75.488281 L 50.601562 83.9375 C 50.601562 84.820312 50.714844 85.375 51.15625 85.597656 C 51.707031 85.890625 52.816406 85.632812 52.816406 86.113281 C 52.816406 86.445312 52.519531 86.519531 51.96875 86.519531 L 42.597656 86.519531 C 41.96875 86.519531 41.636719 86.445312 41.636719 86.148438 C 41.636719 85.671875 42.558594 85.890625 43 85.484375 C 43.296875 85.191406 43.296875 84.785156 43.296875 83.9375 L 43.296875 75.042969 C 43.296875 73.199219 41.636719 73.789062 41.636719 73.199219 C 41.636719 72.976562 44.996094 71.097656 45.066406 71.097656 C 45.289062 71.097656 45.4375 71.316406 45.4375 71.832031 L 45.398438 83.972656 C 45.398438 85.191406 45.621094 85.667969 46.875 85.667969 C 48.386719 85.667969 48.460938 85.117188 48.460938 83.898438 L 48.460938 74.96875 C 48.460938 73.605469 48.3125 73.605469 47.320312 73.605469 C 46.988281 73.605469 46.726562 73.492188 46.726562 73.273438 C 46.726562 73.050781 50.121094 70.800781 50.195312 70.800781 C 50.417969 70.800781 50.417969 71.09375 50.417969 71.796875 Z M 85.0625 71.871094 L 85.101562 74.820312 C 85.101562 75.191406 84.988281 75.375 84.695312 75.375 C 83.585938 75.375 84.140625 71.945312 81.375 71.945312 C 80.117188 71.945312 79.085938 72.902344 79.085938 74.378906 C 79.085938 75.117188 79.492188 75.929688 80.5625 76.628906 L 83.179688 78.398438 C 84.695312 79.433594 85.359375 80.613281 85.359375 82.273438 C 85.359375 84.746094 83.328125 86.960938 80.414062 86.960938 C 77.832031 86.960938 76.6875 86.257812 76.6875 85.484375 L 76.6875 83.160156 C 76.6875 82.238281 76.835938 81.683594 77.242188 81.683594 C 78.273438 81.683594 78.050781 86 80.894531 86 C 82.222656 86 83.4375 84.710938 83.4375 83.011719 C 83.4375 81.941406 82.886719 81.09375 81.925781 80.429688 L 79.160156 78.511719 C 77.941406 77.660156 77.167969 76.554688 77.167969 75.078125 C 77.167969 72.828125 79.195312 71.09375 81.890625 71.09375 C 82.921875 71.09375 83.585938 71.242188 85.0625 71.871094 Z M 85.0625 71.871094 "/>
<path style=" stroke:none;fill-rule:evenodd;fill:rgb(0%,0%,0%);fill-opacity:1;" d="M 88.722656 66.335938 L 88.722656 73.125 C 90.199219 71.871094 91.371094 71.242188 92.847656 71.242188 C 95.578125 71.242188 96.90625 73.160156 96.90625 76.148438 L 96.90625 84.527344 C 96.90625 86.113281 98.527344 85.707031 98.527344 86.113281 C 98.527344 86.40625 98.195312 86.519531 97.238281 86.519531 L 93.621094 86.519531 C 93.140625 86.519531 93.03125 86.445312 93.03125 86.1875 C 93.03125 85.632812 94.691406 86.1875 94.691406 84.527344 L 94.691406 76.113281 C 94.691406 73.863281 93.660156 72.570312 91.925781 72.570312 C 90.078125 72.570312 88.722656 74.082031 88.722656 76.113281 L 88.722656 84.15625 C 88.722656 86.148438 90.671875 85.667969 90.671875 86.148438 C 90.671875 86.445312 90.410156 86.519531 89.746094 86.519531 L 85.285156 86.519531 C 84.878906 86.519531 84.691406 86.40625 84.691406 86.222656 C 84.691406 85.742188 86.5 86.222656 86.5 84.15625 L 86.5 68.035156 C 86.5 66.375 84.691406 66.890625 84.691406 66.375 C 84.691406 66.152344 88.234375 64.234375 88.308594 64.234375 C 88.714844 64.234375 88.722656 64.75 88.722656 66.335938 Z M 31.28125 83.640625 C 30.65625 83.640625 30.691406 85.300781 29.769531 85.300781 C 29.179688 85.300781 28.921875 84.746094 28.921875 83.898438 L 28.921875 74.269531 C 28.921875 72.054688 28.550781 71.316406 26.300781 71.316406 C 23.902344 71.316406 19.917969 73.382812 19.917969 76.148438 C 19.917969 76.851562 20.214844 77.070312 20.617188 77.070312 C 23.3125 77.070312 22.316406 72.089844 25.527344 72.089844 C 26.335938 72.089844 26.632812 72.496094 26.632812 73.34375 L 26.632812 77.183594 L 23.386719 79.617188 C 20.953125 81.460938 19.992188 82.679688 19.992188 84.265625 C 19.992188 85.59375 21.210938 87.035156 22.5 87.035156 C 23.761719 87.039062 25.03125 86.261719 26.78125 84.449219 C 27.113281 86.109375 27.703125 87.035156 28.882812 87.035156 C 29.769531 87.035156 31.578125 85.703125 31.578125 84.007812 C 31.578125 83.789062 31.464844 83.640625 31.28125 83.640625 Z M 23.753906 85.449219 C 22.90625 85.449219 22.316406 84.785156 22.316406 83.53125 C 22.316406 81.980469 23.605469 80.28125 26.632812 78.179688 L 26.636719 83.34375 C 26.265625 83.898438 25.082031 85.449219 23.753906 85.449219 Z M 70.785156 71.058594 C 67.683594 71.058594 64.917969 74.195312 64.917969 78.734375 C 64.917969 80.136719 65.210938 81.574219 65.878906 83.234375 L 65.949219 83.417969 C 65.582031 84.488281 64.992188 85.191406 64.253906 85.191406 C 63.515625 85.191406 63.183594 84.453125 63.183594 83.269531 L 63.183594 72.902344 L 65.175781 72.902344 C 65.804688 72.902344 66.097656 72.757812 66.097656 72.277344 C 66.097656 71.757812 65.730469 71.648438 65.175781 71.648438 L 63.183594 71.648438 L 63.183594 67.921875 C 63.183594 67.628906 63.148438 67.367188 63 67.367188 C 62.742188 67.367188 61.929688 69.03125 61.339844 69.953125 C 60.636719 71.023438 59.492188 72.128906 59.492188 72.460938 C 59.492188 72.757812 59.789062 72.902344 60.304688 72.902344 L 61.007812 72.902344 L 61.007812 83.273438 C 61.007812 85.597656 61.816406 86.851562 63.40625 86.851562 C 64.625 86.851562 65.804688 86 66.503906 84.414062 L 66.542969 84.304688 C 67.871094 85.816406 69.085938 86.8125 70.933594 86.8125 C 73.957031 86.8125 76.796875 83.273438 76.796875 78.957031 C 76.796875 74.378906 73.992188 71.058594 70.785156 71.058594 Z M 70.96875 86 C 68.976562 86 67.277344 83.234375 67.277344 78.585938 C 67.277344 74.304688 68.460938 72.015625 70.636719 72.015625 C 72.8125 72.015625 74.4375 74.527344 74.4375 79.25 C 74.4375 83.53125 73.109375 86 70.96875 86 Z M 41.488281 23.386719 C 42.832031 23.386719 44.453125 23.664062 46.359375 24.21875 C 48.261719 24.773438 49.527344 25.046875 50.152344 25.046875 C 50.957031 25.046875 52.269531 24.734375 54.09375 24.109375 C 55.917969 23.484375 57.5 23.171875 58.839844 23.171875 C 61.042969 23.171875 63 23.761719 64.714844 24.941406 C 65.679688 25.621094 66.636719 26.542969 67.585938 27.703125 C 66.152344 28.921875 65.109375 30.003906 64.445312 30.949219 C 63.246094 32.667969 62.648438 34.5625 62.648438 36.636719 C 62.648438 38.90625 63.285156 40.953125 64.554688 42.777344 C 65.824219 44.601562 67.273438 45.753906 68.898438 46.238281 C 68.21875 48.4375 67.09375 50.734375 65.519531 53.128906 C 63.140625 56.722656 60.78125 58.519531 58.4375 58.519531 C 57.507812 58.519531 56.226562 58.226562 54.589844 57.636719 C 52.953125 57.046875 51.574219 56.75 50.445312 56.75 C 49.320312 56.75 48.011719 57.058594 46.519531 57.675781 C 45.023438 58.292969 43.8125 58.601562 42.882812 58.601562 C 40.074219 58.601562 37.324219 56.222656 34.621094 51.46875 C 31.925781 46.765625 30.574219 42.152344 30.574219 37.628906 C 30.574219 33.425781 31.605469 30.003906 33.671875 27.355469 C 35.738281 24.707031 38.34375 23.386719 41.488281 23.386719 Z M 41.488281 23.386719 "/>
<path style=" stroke:none;fill-rule:evenodd;fill:rgb(0%,0%,0%);fill-opacity:1;" d="M 58.386719 12.816406 C 58.457031 13.050781 58.5 13.257812 58.519531 13.433594 C 58.539062 13.613281 58.546875 13.792969 58.546875 13.972656 C 58.546875 15.117188 58.277344 16.367188 57.742188 17.726562 C 57.207031 19.085938 56.355469 20.347656 55.195312 21.507812 C 54.195312 22.492188 53.199219 23.152344 52.21875 23.492188 C 51.589844 23.691406 50.644531 23.84375 49.375 23.949219 C 49.410156 21.230469 50.121094 18.878906 51.507812 16.894531 C 52.890625 14.910156 55.183594 13.550781 58.386719 12.816406 Z M 58.386719 12.816406 "/>
</g>
</svg>
